<svg width="42" height="42" viewBox="0 0 42 42" fill="none" xmlns="http://www.w3.org/2000/svg">
<path d="M32.7625 20.475L21.5125 9.225C21.0625 8.775 20.4375 8.5 19.75 8.5H11C9.625 8.5 8.5 9.625 8.5 11V19.75C8.5 20.4375 8.775 21.0625 9.2375 21.525L20.4875 32.775C20.9375 33.225 21.5625 33.5 22.25 33.5C22.9375 33.5 23.5625 33.225 24.0125 32.7625L32.7625 24.0125C33.225 23.5625 33.5 22.9375 33.5 22.25C33.5 21.5625 33.2125 20.925 32.7625 20.475ZM22.25 31.0125L11 19.75V11H19.75V10.9875L31 22.2375L22.25 31.0125Z" fill="#323232"/>
<path d="M14.125 16C15.1605 16 16 15.1605 16 14.125C16 13.0895 15.1605 12.25 14.125 12.25C13.0895 12.25 12.25 13.0895 12.25 14.125C12.25 15.1605 13.0895 16 14.125 16Z" fill="#323232"/>
<path d="M17.125 21.6875C17.125 22.4 17.4125 23.025 17.875 23.5L22.25 27.875L26.625 23.5C27.0875 23.0375 27.375 22.3875 27.375 21.6875C27.375 20.275 26.225 19.125 24.8125 19.125C24.1 19.125 23.4625 19.4125 23 19.875L22.25 20.625L21.5 19.8875C21.0375 19.4125 20.3875 19.125 19.6875 19.125C18.275 19.125 17.125 20.275 17.125 21.6875Z" fill="#323232"/>
</svg>
